<mxfile host="app.diagrams.net" modified="2024-03-24T17:39:02.015Z" agent="Mozilla/5.0 (Windows NT 10.0; Win64; x64; rv:124.0) Gecko/20100101 Firefox/124.0" etag="CBEnGaR9QSLe4Fx3ELpe" version="24.1.0" type="github">
  <diagram id="prtHgNgQTEPvFCAcTncT" name="Page-1">
    <mxGraphModel dx="1430" dy="763" grid="1" gridSize="10" guides="1" tooltips="1" connect="1" arrows="1" fold="1" page="1" pageScale="1" pageWidth="827" pageHeight="1169" math="0" shadow="0">
      <root>
        <mxCell id="0" />
        <mxCell id="1" parent="0" />
        <mxCell id="dNxyNK7c78bLwvsdeMH5-11" value="典型的小型中文化小组" style="swimlane;html=1;startSize=20;horizontal=1;containerType=tree;glass=0;" parent="1" vertex="1">
          <mxGeometry x="24" y="30" width="780" height="610" as="geometry">
            <mxRectangle x="40" y="80" width="90" height="30" as="alternateBounds" />
          </mxGeometry>
        </mxCell>
        <mxCell id="oI46xZ3VqTC88thM3Fud-12" style="edgeStyle=elbowEdgeStyle;rounded=0;orthogonalLoop=1;jettySize=auto;html=1;entryX=1;entryY=0.5;entryDx=0;entryDy=0;elbow=vertical;" edge="1" parent="dNxyNK7c78bLwvsdeMH5-11" source="dNxyNK7c78bLwvsdeMH5-12" target="dNxyNK7c78bLwvsdeMH5-14">
          <mxGeometry relative="1" as="geometry">
            <Array as="points">
              <mxPoint x="390" y="170" />
            </Array>
          </mxGeometry>
        </mxCell>
        <mxCell id="oI46xZ3VqTC88thM3Fud-13" style="edgeStyle=elbowEdgeStyle;rounded=0;orthogonalLoop=1;jettySize=auto;html=1;entryX=0;entryY=0.5;entryDx=0;entryDy=0;elbow=vertical;" edge="1" parent="dNxyNK7c78bLwvsdeMH5-11" source="dNxyNK7c78bLwvsdeMH5-12" target="oI46xZ3VqTC88thM3Fud-1">
          <mxGeometry relative="1" as="geometry">
            <Array as="points">
              <mxPoint x="390" y="170" />
            </Array>
          </mxGeometry>
        </mxCell>
        <mxCell id="oI46xZ3VqTC88thM3Fud-14" style="edgeStyle=elbowEdgeStyle;rounded=0;orthogonalLoop=1;jettySize=auto;html=1;entryX=1;entryY=0.5;entryDx=0;entryDy=0;elbow=vertical;" edge="1" parent="dNxyNK7c78bLwvsdeMH5-11" source="dNxyNK7c78bLwvsdeMH5-12" target="dNxyNK7c78bLwvsdeMH5-16">
          <mxGeometry relative="1" as="geometry">
            <Array as="points">
              <mxPoint x="390" y="280" />
            </Array>
          </mxGeometry>
        </mxCell>
        <mxCell id="oI46xZ3VqTC88thM3Fud-15" style="edgeStyle=elbowEdgeStyle;rounded=0;orthogonalLoop=1;jettySize=auto;html=1;entryX=0;entryY=0.5;entryDx=0;entryDy=0;elbow=vertical;" edge="1" parent="dNxyNK7c78bLwvsdeMH5-11" source="dNxyNK7c78bLwvsdeMH5-12" target="dNxyNK7c78bLwvsdeMH5-18">
          <mxGeometry relative="1" as="geometry">
            <Array as="points">
              <mxPoint x="390" y="280" />
            </Array>
          </mxGeometry>
        </mxCell>
        <mxCell id="oI46xZ3VqTC88thM3Fud-16" style="edgeStyle=elbowEdgeStyle;rounded=0;orthogonalLoop=1;jettySize=auto;html=1;entryX=1;entryY=0.5;entryDx=0;entryDy=0;elbow=vertical;" edge="1" parent="dNxyNK7c78bLwvsdeMH5-11" source="dNxyNK7c78bLwvsdeMH5-12" target="oI46xZ3VqTC88thM3Fud-2">
          <mxGeometry relative="1" as="geometry">
            <Array as="points">
              <mxPoint x="390" y="390" />
            </Array>
          </mxGeometry>
        </mxCell>
        <mxCell id="oI46xZ3VqTC88thM3Fud-17" style="edgeStyle=elbowEdgeStyle;rounded=0;orthogonalLoop=1;jettySize=auto;html=1;entryX=0;entryY=0.5;entryDx=0;entryDy=0;elbow=vertical;" edge="1" parent="dNxyNK7c78bLwvsdeMH5-11" source="dNxyNK7c78bLwvsdeMH5-12" target="oI46xZ3VqTC88thM3Fud-8">
          <mxGeometry relative="1" as="geometry">
            <Array as="points">
              <mxPoint x="390" y="390" />
            </Array>
          </mxGeometry>
        </mxCell>
        <mxCell id="oI46xZ3VqTC88thM3Fud-18" style="edgeStyle=elbowEdgeStyle;rounded=0;orthogonalLoop=1;jettySize=auto;html=1;entryX=1;entryY=0.5;entryDx=0;entryDy=0;elbow=vertical;" edge="1" parent="dNxyNK7c78bLwvsdeMH5-11" source="dNxyNK7c78bLwvsdeMH5-12" target="oI46xZ3VqTC88thM3Fud1-10">
          <mxGeometry relative="1" as="geometry">
            <Array as="points">
              <mxPoint x="390" y="500" />
            </Array>
          </mxGeometry>
        </mxCell>
        <mxCell id="oI46xZ3VqTC88thM3Fud-19" style="edgeStyle=elbowEdgeStyle;rounded=0;orthogonalLoop=1;jettySize=auto;html=1;entryX=0;entryY=0.5;entryDx=0;entryDy=0;elbow=vertical;" edge="1" parent="dNxyNK7c78bLwvsdeMH5-11" source="dNxyNK7c78bLwvsdeMH5-12" target="oI46xZ3VqTC88thM3Fud-9">
          <mxGeometry relative="1" as="geometry">
            <Array as="points">
              <mxPoint x="390" y="500" />
            </Array>
          </mxGeometry>
        </mxCell>
        <UserObject label="成员1&lt;br&gt;&lt;div&gt;&lt;i style=&quot;color: gray&quot;&gt;组长&lt;/i&gt;&lt;br&gt;&lt;/div&gt;&lt;div&gt;联系方式...&lt;/div&gt;" name="成员1" position="组长" location="Office 1" email="me@example.com" placeholders="1" id="dNxyNK7c78bLwvsdeMH5-12">
          <mxCell style="label;image=https://cdn3.iconfinder.com/data/icons/user-avatars-1/512/users-3-128.png;whiteSpace=wrap;html=1;rounded=0;glass=0;treeMoving=1;treeFolding=1;shadow=1;" parent="dNxyNK7c78bLwvsdeMH5-11" vertex="1">
            <mxGeometry x="300" y="40" width="180" height="70" as="geometry" />
          </mxCell>
        </UserObject>
        <UserObject label="%name%&lt;br&gt;&lt;div&gt;&lt;i style=&quot;color: gray&quot;&gt;%position%&lt;/i&gt;&lt;br&gt;&lt;/div&gt;&lt;div&gt;联系方式...&lt;/div&gt;" name="成员2" position="程序技术岗" location="Office 2" email="me@example.com" placeholders="1" link="https://www.draw.io" id="dNxyNK7c78bLwvsdeMH5-14">
          <mxCell style="label;image=https://cdn3.iconfinder.com/data/icons/user-avatars-1/512/users-10-3-128.png;whiteSpace=wrap;html=1;rounded=0;glass=0;treeFolding=1;treeMoving=1;" parent="dNxyNK7c78bLwvsdeMH5-11" vertex="1">
            <mxGeometry x="106" y="130" width="180" height="80" as="geometry" />
          </mxCell>
        </UserObject>
        <UserObject label="%name%&lt;br&gt;&lt;div&gt;&lt;i style=&quot;color: gray&quot;&gt;%position%&lt;/i&gt;&lt;br&gt;&lt;/div&gt;&lt;div&gt;联系方式...&lt;/div&gt;" name="成员3" position="运营" location="Office 4" email="me@example.com" placeholders="1" link="https://www.draw.io" id="dNxyNK7c78bLwvsdeMH5-16">
          <mxCell style="label;image=https://cdn3.iconfinder.com/data/icons/user-avatars-1/512/users-9-2-128.png;whiteSpace=wrap;html=1;rounded=0;glass=0;treeFolding=1;treeMoving=1;" parent="dNxyNK7c78bLwvsdeMH5-11" vertex="1">
            <mxGeometry x="106" y="240" width="180" height="80" as="geometry" />
          </mxCell>
        </UserObject>
        <UserObject label="%name%&lt;br&gt;&lt;i style=&quot;color: gray&quot;&gt;%position%&lt;/i&gt;&lt;i style=&quot;color: gray&quot;&gt;&lt;/i&gt;&lt;br&gt;&lt;div&gt;联系方式...&lt;/div&gt;" name="成员7" position="翻译" location="Office 3" email="me@example.com" placeholders="1" link="https://www.draw.io" id="dNxyNK7c78bLwvsdeMH5-18">
          <mxCell style="label;image=https://cdn3.iconfinder.com/data/icons/user-avatars-1/512/users-2-128.png;whiteSpace=wrap;html=1;rounded=0;glass=0;" parent="dNxyNK7c78bLwvsdeMH5-11" vertex="1">
            <mxGeometry x="486" y="240" width="180" height="80" as="geometry" />
          </mxCell>
        </UserObject>
        <UserObject label="%name%&lt;br&gt;&lt;i style=&quot;color: gray&quot;&gt;%position%&lt;/i&gt;&lt;i style=&quot;color: gray&quot;&gt;&lt;/i&gt;&lt;br&gt;&lt;div&gt;联系方式...&lt;/div&gt;" name="成员6" position="翻译" location="Office 2" email="me@example.com" placeholders="1" link="https://www.draw.io" id="oI46xZ3VqTC88thM3Fud-1">
          <mxCell style="label;image=https://cdn3.iconfinder.com/data/icons/user-avatars-1/512/users-10-3-128.png;whiteSpace=wrap;html=1;rounded=0;glass=0;treeFolding=1;treeMoving=1;" vertex="1" parent="dNxyNK7c78bLwvsdeMH5-11">
            <mxGeometry x="486" y="130" width="180" height="80" as="geometry" />
          </mxCell>
        </UserObject>
        <UserObject label="%name%&lt;br&gt;&lt;div&gt;&lt;i style=&quot;color: gray&quot;&gt;%position%&lt;/i&gt;&lt;br&gt;&lt;/div&gt;&lt;div&gt;联系方式...&lt;/div&gt;" name="成员4" position="校对" location="Office 4" email="me@example.com" placeholders="1" link="https://www.draw.io" id="oI46xZ3VqTC88thM3Fud-2">
          <mxCell style="label;image=https://cdn3.iconfinder.com/data/icons/user-avatars-1/512/users-9-2-128.png;whiteSpace=wrap;html=1;rounded=0;glass=0;treeFolding=1;treeMoving=1;" vertex="1" parent="dNxyNK7c78bLwvsdeMH5-11">
            <mxGeometry x="106" y="350" width="180" height="80" as="geometry" />
          </mxCell>
        </UserObject>
        <UserObject label="%name%&lt;br&gt;&lt;i style=&quot;color: gray&quot;&gt;%position%&lt;/i&gt;&lt;i style=&quot;color: gray&quot;&gt;&lt;/i&gt;&lt;br&gt;&lt;div&gt;联系方式...&lt;/div&gt;" name="成员8" position="文学顾问" location="Office 4" email="me@example.com" placeholders="1" link="https://www.draw.io" id="oI46xZ3VqTC88thM3Fud-8">
          <mxCell style="label;image=https://cdn3.iconfinder.com/data/icons/user-avatars-1/512/users-9-2-128.png;whiteSpace=wrap;html=1;rounded=0;glass=0;treeFolding=1;treeMoving=1;" vertex="1" parent="dNxyNK7c78bLwvsdeMH5-11">
            <mxGeometry x="486" y="350" width="180" height="80" as="geometry" />
          </mxCell>
        </UserObject>
        <UserObject label="%name%&lt;br&gt;&lt;i style=&quot;color: gray&quot;&gt;%position%&lt;/i&gt;&lt;i style=&quot;color: gray&quot;&gt;&lt;/i&gt;&lt;br&gt;&lt;div&gt;联系方式...&lt;/div&gt;" name="成员9" position="其他技术岗" location="Office 4" email="me@example.com" placeholders="1" link="https://www.draw.io" id="oI46xZ3VqTC88thM3Fud-9">
          <mxCell style="label;image=https://cdn3.iconfinder.com/data/icons/user-avatars-1/512/users-9-2-128.png;whiteSpace=wrap;html=1;rounded=0;glass=0;treeFolding=1;treeMoving=1;" vertex="1" parent="dNxyNK7c78bLwvsdeMH5-11">
            <mxGeometry x="486" y="460" width="180" height="80" as="geometry" />
          </mxCell>
        </UserObject>
        <UserObject label="%name%&lt;br&gt;&lt;i style=&quot;color: gray&quot;&gt;%position%&lt;/i&gt;&lt;i style=&quot;color: gray&quot;&gt;&lt;/i&gt;&lt;br&gt;&lt;div&gt;联系方式...&lt;/div&gt;" name="成员5" position="校对、翻译" location="Office 4" email="me@example.com" placeholders="1" link="https://www.draw.io" id="oI46xZ3VqTC88thM3Fud1-10">
          <mxCell style="label;image=https://cdn3.iconfinder.com/data/icons/user-avatars-1/512/users-9-2-128.png;whiteSpace=wrap;html=1;rounded=0;glass=0;treeFolding=1;treeMoving=1;" vertex="1" parent="dNxyNK7c78bLwvsdeMH5-11">
            <mxGeometry x="106" y="460" width="180" height="80" as="geometry" />
          </mxCell>
        </UserObject>
      </root>
    </mxGraphModel>
  </diagram>
</mxfile>
